<svg xmlns="http://www.w3.org/2000/svg" version="1.1" xmlns:xlink="http://www.w3.org/1999/xlink" xmlns:svgjs="http://svgjs.dev/svgjs" width="2000" height="720" viewBox="0 0 2000 720"><g transform="matrix(1,0,0,1,-1.4500417576740574,-38.96114519745652)"><svg viewBox="0 0 300 108" data-background-color="#ffffff" preserveAspectRatio="xMidYMid meet" height="720" width="2000" xmlns="http://www.w3.org/2000/svg" xmlns:xlink="http://www.w3.org/1999/xlink"><defs></defs><g id="tight-bounds" transform="matrix(1,0,0,1,0.21750628294057606,5.844171779618478)"><svg viewBox="0 0 293.49969999999996 102.37694389417143" height="102.37694389417143" width="293.49969999999996"><g><svg viewBox="0 0 293.49969999999996 102.37694389417143" height="102.37694389417143" width="293.49969999999996"><g><svg viewBox="0 0 293.49969999999996 102.37694389417143" height="102.37694389417143" width="293.49969999999996"><g><svg viewBox="0 0 293.49969999999996 102.37694389417143" height="102.37694389417143" width="293.49969999999996"><g><svg viewBox="0 0 293.49969999999996 58.571600000000004" height="58.571600000000004" width="293.49969999999996"><g><svg><g></g><g></g></svg></g><g><svg><g><svg></svg></g><g></g></svg></g><g id="text-0"><svg viewBox="0 0 293.49969999999996 58.571600000000004" height="58.571600000000004" width="293.49969999999996"><g transform="matrix(1,0,0,1,0,0)"><svg width="221.09969999999998" viewBox="0.800000011920929 -35.45000076293945 136.63999938964844 36.20000076293945" height="58.571600000000004" data-palette-color="#0c0265"><path d="M0.8-34.65L27.45-34.65 27.45-30.45 16.55-30.45 16.55 0 11.7 0 11.7-30.45 0.8-30.45 0.8-34.65ZM29.8-17.35L29.8-17.35Q29.8-21.8 31.12-25.2 32.45-28.6 34.72-30.88 37-33.15 40.02-34.3 43.05-35.45 46.45-35.45L46.45-35.45Q49.8-35.45 52.77-34.3 55.75-33.15 58-30.88 60.25-28.6 61.57-25.2 62.9-21.8 62.9-17.35L62.9-17.35Q62.9-12.9 61.57-9.5 60.25-6.1 58-3.83 55.75-1.55 52.77-0.4 49.8 0.75 46.45 0.75L46.45 0.75Q43.05 0.75 40.02-0.4 37-1.55 34.72-3.83 32.45-6.1 31.12-9.5 29.8-12.9 29.8-17.35ZM34.9-17.35L34.9-17.35Q34.9-14.2 35.7-11.63 36.5-9.05 37.97-7.25 39.45-5.45 41.57-4.48 43.7-3.5 46.35-3.5L46.35-3.5Q49-3.5 51.1-4.48 53.2-5.45 54.67-7.25 56.15-9.05 56.95-11.63 57.75-14.2 57.75-17.35L57.75-17.35Q57.75-20.5 56.95-23.08 56.15-25.65 54.67-27.45 53.2-29.25 51.1-30.23 49-31.2 46.35-31.2L46.35-31.2Q43.7-31.2 41.57-30.23 39.45-29.25 37.97-27.45 36.5-25.65 35.7-23.08 34.9-20.5 34.9-17.35ZM98.55-17.35L98.55-17.35Q98.55-12.85 97.15-9.53 95.75-6.2 93.2-4.03 90.65-1.85 87.09-0.78 83.55 0.3 79.3 0.3L79.3 0.3Q77.2 0.3 74.67 0.13 72.14-0.05 70.09-0.55L70.09-0.55 70.09-34.15Q72.14-34.65 74.67-34.83 77.2-35 79.3-35L79.3-35Q83.55-35 87.09-33.93 90.65-32.85 93.2-30.68 95.75-28.5 97.15-25.18 98.55-21.85 98.55-17.35ZM79.7-3.95L79.7-3.95Q86.59-3.95 90-7.48 93.4-11 93.4-17.35L93.4-17.35Q93.4-23.7 90-27.23 86.59-30.75 79.7-30.75L79.7-30.75Q77.65-30.75 76.52-30.7 75.4-30.65 74.95-30.6L74.95-30.6 74.95-4.1Q75.4-4.05 76.52-4 77.65-3.95 79.7-3.95ZM104.34-17.35L104.34-17.35Q104.34-21.8 105.67-25.2 106.99-28.6 109.27-30.88 111.54-33.15 114.57-34.3 117.59-35.45 120.99-35.45L120.99-35.45Q124.34-35.45 127.32-34.3 130.29-33.15 132.54-30.88 134.79-28.6 136.12-25.2 137.44-21.8 137.44-17.35L137.44-17.35Q137.44-12.9 136.12-9.5 134.79-6.1 132.54-3.83 130.29-1.55 127.32-0.4 124.34 0.75 120.99 0.75L120.99 0.75Q117.59 0.75 114.57-0.4 111.54-1.55 109.27-3.83 106.99-6.1 105.67-9.5 104.34-12.9 104.34-17.35ZM109.44-17.35L109.44-17.35Q109.44-14.2 110.24-11.63 111.04-9.05 112.52-7.25 113.99-5.45 116.12-4.48 118.24-3.5 120.89-3.5L120.89-3.5Q123.54-3.5 125.64-4.48 127.74-5.45 129.22-7.25 130.69-9.05 131.49-11.63 132.29-14.2 132.29-17.35L132.29-17.35Q132.29-20.5 131.49-23.08 130.69-25.65 129.22-27.45 127.74-29.25 125.64-30.23 123.54-31.2 120.89-31.2L120.89-31.2Q118.24-31.2 116.12-30.23 113.99-29.25 112.52-27.45 111.04-25.65 110.24-23.08 109.44-20.5 109.44-17.35Z" opacity="1" transform="matrix(1,0,0,1,0,0)" fill="#0c0265" class="undefined-text-0" data-fill-palette-color="primary"></path></svg></g><g><svg xmlns="http://www.w3.org/2000/svg" data-name="Layer 1" viewBox="5 5 38 38" x="234.92809999999997" y="0" height="58.571600000000004" width="58.571600000000004" class="icon-x-0" data-fill-palette-color="accent" id="x-0"><path d="M24 5A19 19 0 1 0 43 24 19 19 0 0 0 24 5Zm4.08 24.83L22 25V13.43A1.43 1.43 0 0 1 23.43 12h1.14A1.43 1.43 0 0 1 26 13.43V23l4.58 3.66a1.59 1.59 0 0 1 0.25 2.22l-0.53 0.66A1.59 1.59 0 0 1 28.08 29.83Z" fill="#0c0265" data-fill-palette-color="accent"></path></svg></g></svg></g></svg></g><g transform="matrix(1,0,0,1,56.0584427,72.3989490416)"><svg viewBox="0 0 181.38281459999996 29.977994852571424" height="29.977994852571424" width="181.38281459999996"><g transform="matrix(1,0,0,1,0,0)"><svg width="181.38281459999996" viewBox="1.25 -37.099998474121094 227.47999572753906 37.599998474121094" height="29.977994852571424" data-palette-color="#0c0265"><path d="M19.75-20.65L19.75-20.65Q18.75-22.15 16.95-23.1 15.15-24.05 12.65-24.05L12.65-24.05Q9.95-24.05 8.18-22.9 6.4-21.75 6.4-19.8L6.4-19.8Q6.4-18.75 7.2-17.82 8-16.9 10.45-16.1L10.45-16.1 16.8-14.2Q20.25-13.25 21.78-11.45 23.3-9.65 23.3-7.3L23.3-7.3Q23.3-4.95 21.9-3.2 20.5-1.45 18.05-0.48 15.6 0.5 12.5 0.5L12.5 0.5Q8.55 0.5 5.6-1.07 2.65-2.65 1.4-5L1.4-5Q1.25-5.25 1.25-5.45 1.25-5.65 1.5-5.8L1.5-5.8 3.45-6.9Q3.7-7.05 3.9-7.03 4.1-7 4.2-6.85L4.2-6.85Q5.05-5.55 6.18-4.6 7.3-3.65 8.88-3.1 10.45-2.55 12.55-2.55L12.55-2.55Q14.45-2.6 16-3.1 17.55-3.6 18.45-4.58 19.35-5.55 19.35-6.85L19.35-6.85Q19.35-8.2 18.25-9.18 17.15-10.15 14.45-10.9L14.45-10.9 9.3-12.35Q5.55-13.35 4.03-15.05 2.5-16.75 2.45-19.05L2.45-19.05Q2.45-21.45 3.75-23.23 5.05-25 7.38-26 9.7-27 12.7-27L12.7-27Q16.05-27 18.68-25.73 21.3-24.45 22.65-22.35L22.65-22.35Q22.8-22.15 22.8-21.98 22.8-21.8 22.6-21.65L22.6-21.65 20.5-20.5Q20.3-20.4 20.13-20.43 19.95-20.45 19.75-20.65L19.75-20.65ZM40.45-27L40.45-27Q43.05-27 45.02-26.18 47-25.35 48.42-23.93 49.85-22.5 50.8-20.8L50.8-20.8Q51.1-20.2 50.55-20.05L50.55-20.05 47.8-19.4Q47.45-19.25 47.15-19.7L47.15-19.7Q46.15-21.15 45.17-22.05 44.2-22.95 43.1-23.43 42-23.9 40.7-23.9L40.7-23.9Q38.15-23.9 36.22-22.63 34.3-21.35 33.25-18.95 32.2-16.55 32.2-13.25L32.2-13.25Q32.2-9.9 33.27-7.5 34.35-5.1 36.27-3.85 38.2-2.6 40.8-2.6L40.8-2.6Q43.2-2.6 44.95-3.8 46.7-5 48.15-7.3L48.15-7.3Q48.3-7.55 48.42-7.58 48.55-7.6 48.8-7.5L48.8-7.5 50.95-6.7Q51.3-6.55 51.15-6.05L51.15-6.05Q50.4-4.75 49.4-3.55 48.4-2.35 47.07-1.45 45.75-0.55 44.1-0.03 42.45 0.5 40.45 0.5L40.45 0.5Q36.75 0.5 33.92-1.23 31.1-2.95 29.5-6.03 27.9-9.1 27.9-13.15L27.9-13.15Q27.9-17.25 29.52-20.35 31.15-23.45 33.97-25.23 36.8-27 40.45-27L40.45-27ZM57.25 0L57.25 0Q56.6 0 56.6-0.65L56.6-0.65 56.6-36.45Q56.6-37.1 57.15-37.1L57.15-37.1 60.1-37.1Q60.65-37.1 60.65-36.5L60.65-36.5 60.65-23.15Q60.65-22.9 60.75-22.85 60.85-22.8 61.1-23L61.1-23Q62.85-24.35 64.32-25.25 65.8-26.15 67.22-26.58 68.65-27 70.35-27L70.35-27Q74.25-27 76.3-24.93 78.35-22.85 78.35-19.4L78.35-19.4 78.35-0.8Q78.35 0 77.6 0L77.6 0 74.8 0Q74.45 0 74.3-0.18 74.15-0.35 74.15-0.65L74.15-0.65 74.15-18.5Q74.15-20.95 72.9-22.33 71.65-23.7 68.95-23.7L68.95-23.7Q67.5-23.7 66.22-23.23 64.95-22.75 63.65-21.88 62.35-21 60.8-19.65L60.8-19.65 60.8-0.75Q60.8 0 60 0L60 0 57.25 0ZM88.54-11.6L88.54-11.6Q88.54-9.15 89.72-7.13 90.89-5.1 92.87-3.9 94.84-2.7 97.29-2.7L97.29-2.7Q99.79-2.7 101.74-3.73 103.69-4.75 105.09-6.85L105.09-6.85Q105.29-7.05 105.42-7.08 105.54-7.1 105.79-7L105.79-7 107.89-5.95Q108.34-5.7 107.99-5.25L107.99-5.25Q106.64-3.25 105.02-1.98 103.39-0.7 101.39-0.1 99.39 0.5 96.89 0.5L96.89 0.5Q93.19 0.5 90.34-1.2 87.49-2.9 85.84-5.95 84.19-9 84.19-13L84.19-13Q84.19-17.35 85.87-20.48 87.54-23.6 90.42-25.3 93.29-27 96.84-27L96.84-27Q100.49-27 103.19-25.4 105.89-23.8 107.39-20.75 108.89-17.7 108.89-13.4L108.89-13.4Q108.89-13.05 108.82-12.7 108.74-12.35 108.14-12.35L108.14-12.35 88.99-12.35Q88.79-12.35 88.67-12.13 88.54-11.9 88.54-11.6L88.54-11.6ZM88.64-15.1L103.84-15.1Q104.39-15.1 104.54-15.23 104.69-15.35 104.69-15.8L104.69-15.8Q104.69-17.95 103.77-19.83 102.84-21.7 101.12-22.85 99.39-24 96.94-24L96.94-24Q94.24-24 92.39-22.73 90.54-21.45 89.59-19.4 88.64-17.35 88.64-15.1L88.64-15.1ZM133.64 0L133.64 0Q133.29 0 133.12-0.18 132.94-0.35 132.94-0.7L132.94-0.7 132.94-2.8Q132.94-3.2 132.77-3.25 132.59-3.3 132.29-3L132.29-3Q131.74-2.5 130.72-1.65 129.69-0.8 128.14-0.15 126.59 0.5 124.44 0.5L124.44 0.5Q121.29 0.5 118.79-1 116.29-2.5 114.82-5.48 113.34-8.45 113.34-12.85L113.34-12.85Q113.34-17.1 114.82-20.28 116.29-23.45 118.97-25.23 121.64-27 125.04-27L125.04-27Q127.49-27 129.14-26.2 130.79-25.4 132.04-24.35L132.04-24.35Q132.49-24 132.67-24.08 132.84-24.15 132.84-24.7L132.84-24.7 132.84-36.45Q132.84-37.1 133.39-37.1L133.39-37.1 136.44-37.1Q136.99-37.1 136.99-36.45L136.99-36.45 136.99-0.8Q136.99-0.35 136.84-0.18 136.69 0 136.19 0L136.19 0 133.64 0ZM132.79-20.65L132.79-20.65Q131.24-22.2 129.64-23.05 128.04-23.9 126.04-23.9L126.04-23.9Q123.64-23.9 121.72-22.68 119.79-21.45 118.72-19 117.64-16.55 117.64-13L117.64-13Q117.64-9.35 118.74-7.03 119.84-4.7 121.69-3.63 123.54-2.55 125.74-2.55L125.74-2.55Q127.79-2.55 129.37-3.5 130.94-4.45 131.87-5.85 132.79-7.25 132.79-8.6L132.79-8.6 132.79-20.65ZM153.74-2.8L153.74-2.8Q155.89-2.8 157.86-3.98 159.84-5.15 161.79-7.15L161.79-7.15 161.79-25.75Q161.79-26.5 162.59-26.5L162.59-26.5 165.34-26.5Q166.04-26.5 166.04-25.8L166.04-25.8 165.94-0.65Q165.94 0 165.39 0L165.39 0 162.49 0Q161.94 0 161.94-0.55L161.94-0.55 161.94-3.5Q161.94-3.75 161.84-3.8 161.74-3.85 161.49-3.65L161.49-3.65Q158.74-1.3 156.61-0.4 154.49 0.5 152.39 0.5L152.39 0.5Q150.09 0.5 148.29-0.45 146.49-1.4 145.44-3.13 144.39-4.85 144.39-7.15L144.39-7.15 144.39-25.7Q144.39-26.5 145.14-26.5L145.14-26.5 147.94-26.5Q148.59-26.5 148.59-25.8L148.59-25.8 148.59-8.25Q148.59-5.8 149.96-4.3 151.34-2.8 153.74-2.8L153.74-2.8ZM177.94-36.45L177.94-0.85Q177.94-0.35 177.74-0.18 177.54 0 177.04 0L177.04 0 174.44 0Q173.69 0 173.69-0.7L173.69-0.7 173.74-36.4Q173.74-37.1 174.34-37.1L174.34-37.1 177.34-37.1Q177.94-37.1 177.94-36.45L177.94-36.45ZM188.43-11.6L188.43-11.6Q188.43-9.15 189.61-7.13 190.78-5.1 192.76-3.9 194.73-2.7 197.18-2.7L197.18-2.7Q199.68-2.7 201.63-3.73 203.58-4.75 204.98-6.85L204.98-6.85Q205.18-7.05 205.31-7.08 205.43-7.1 205.68-7L205.68-7 207.78-5.95Q208.23-5.7 207.88-5.25L207.88-5.25Q206.53-3.25 204.91-1.98 203.28-0.7 201.28-0.1 199.28 0.5 196.78 0.5L196.78 0.5Q193.08 0.5 190.23-1.2 187.38-2.9 185.73-5.95 184.08-9 184.08-13L184.08-13Q184.08-17.35 185.76-20.48 187.43-23.6 190.31-25.3 193.18-27 196.73-27L196.73-27Q200.38-27 203.08-25.4 205.78-23.8 207.28-20.75 208.78-17.7 208.78-13.4L208.78-13.4Q208.78-13.05 208.71-12.7 208.63-12.35 208.03-12.35L208.03-12.35 188.88-12.35Q188.68-12.35 188.56-12.13 188.43-11.9 188.43-11.6L188.43-11.6ZM188.53-15.1L203.73-15.1Q204.28-15.1 204.43-15.23 204.58-15.35 204.58-15.8L204.58-15.8Q204.58-17.95 203.66-19.83 202.73-21.7 201.01-22.85 199.28-24 196.83-24L196.83-24Q194.13-24 192.28-22.73 190.43-21.45 189.48-19.4 188.53-17.35 188.53-15.1L188.53-15.1ZM215.38 0L215.38 0Q215.03 0 214.86-0.18 214.68-0.35 214.68-0.65L214.68-0.65 214.68-25.85Q214.68-26.5 215.23-26.5L215.23-26.5 218.13-26.5Q218.68-26.5 218.68-25.95L218.68-25.95 218.68-22.7Q218.68-22.4 218.83-22.35 218.98-22.3 219.23-22.55L219.23-22.55Q220.53-24.1 221.81-25.08 223.08-26.05 224.38-26.53 225.68-27 226.98-27L226.98-27Q228.73-27 228.73-26.35L228.73-26.35 228.73-23.35Q228.73-22.85 228.28-22.95L228.28-22.95Q227.83-23 227.26-23.05 226.68-23.1 226.03-23.1L226.03-23.1Q224.93-23.1 223.68-22.63 222.43-22.15 221.36-21.3 220.28-20.45 219.58-19.4 218.88-18.35 218.88-17.3L218.88-17.3 218.88-0.75Q218.88 0 218.13 0L218.13 0 215.38 0Z" opacity="1" transform="matrix(1,0,0,1,0,0)" fill="#0c0265" class="undefined-text-1" data-fill-palette-color="secondary" id="text-1"></path></svg></g></svg></g></svg></g></svg></g></svg></g></svg><rect width="293.49969999999996" height="102.37694389417143" fill="none" stroke="none" visibility="hidden"></rect></g></svg></g></svg>